G04 (created by PCBNEW (2013-07-07 BZR 4022)-stable) date 2/28/2015 2:35:54 PM*
%MOIN*%
G04 Gerber Fmt 3.4, Leading zero omitted, Abs format*
%FSLAX34Y34*%
G01*
G70*
G90*
G04 APERTURE LIST*
%ADD10C,0.005*%
%ADD11C,0.00393701*%
%ADD12C,0.00787402*%
%ADD13C,0.011811*%
G04 APERTURE END LIST*
G54D10*
G54D11*
X43551Y-36612D02*
X43557Y-36612D01*
X43473Y-36612D02*
X43551Y-36612D01*
X43473Y-46996D02*
X43473Y-36612D01*
X43530Y-46996D02*
X43473Y-46996D01*
X65156Y-46996D02*
X43530Y-46996D01*
X65156Y-36612D02*
X65156Y-46996D01*
X43508Y-36612D02*
X65156Y-36612D01*
G54D12*
X44674Y-40250D02*
X44994Y-40570D01*
X44994Y-40250D02*
X44674Y-40570D01*
X44674Y-46250D02*
X44994Y-46570D01*
X44994Y-46250D02*
X44674Y-46570D01*
X45674Y-40250D02*
X45994Y-40570D01*
X45994Y-40250D02*
X45674Y-40570D01*
X45674Y-46250D02*
X45994Y-46570D01*
X45994Y-46250D02*
X45674Y-46570D01*
X46674Y-40250D02*
X46994Y-40570D01*
X46994Y-40250D02*
X46674Y-40570D01*
X46674Y-46250D02*
X46994Y-46570D01*
X46994Y-46250D02*
X46674Y-46570D01*
X47674Y-40250D02*
X47994Y-40570D01*
X47994Y-40250D02*
X47674Y-40570D01*
X47674Y-46250D02*
X47994Y-46570D01*
X47994Y-46250D02*
X47674Y-46570D01*
X48674Y-40250D02*
X48994Y-40570D01*
X48994Y-40250D02*
X48674Y-40570D01*
X48674Y-46250D02*
X48994Y-46570D01*
X48994Y-46250D02*
X48674Y-46570D01*
X49674Y-40250D02*
X49994Y-40570D01*
X49994Y-40250D02*
X49674Y-40570D01*
X49674Y-46250D02*
X49994Y-46570D01*
X49994Y-46250D02*
X49674Y-46570D01*
X50674Y-40250D02*
X50994Y-40570D01*
X50994Y-40250D02*
X50674Y-40570D01*
X50674Y-46250D02*
X50994Y-46570D01*
X50994Y-46250D02*
X50674Y-46570D01*
X51674Y-40250D02*
X51994Y-40570D01*
X51994Y-40250D02*
X51674Y-40570D01*
X51674Y-46250D02*
X51994Y-46570D01*
X51994Y-46250D02*
X51674Y-46570D01*
X52674Y-40250D02*
X52994Y-40570D01*
X52994Y-40250D02*
X52674Y-40570D01*
X52674Y-46250D02*
X52994Y-46570D01*
X52994Y-46250D02*
X52674Y-46570D01*
X53674Y-40250D02*
X53994Y-40570D01*
X53994Y-40250D02*
X53674Y-40570D01*
X53674Y-46250D02*
X53994Y-46570D01*
X53994Y-46250D02*
X53674Y-46570D01*
X54674Y-40250D02*
X54994Y-40570D01*
X54994Y-40250D02*
X54674Y-40570D01*
X54674Y-46250D02*
X54994Y-46570D01*
X54994Y-46250D02*
X54674Y-46570D01*
X55674Y-40250D02*
X55994Y-40570D01*
X55994Y-40250D02*
X55674Y-40570D01*
X55674Y-46250D02*
X55994Y-46570D01*
X55994Y-46250D02*
X55674Y-46570D01*
X56674Y-40250D02*
X56994Y-40570D01*
X56994Y-40250D02*
X56674Y-40570D01*
X56674Y-46250D02*
X56994Y-46570D01*
X56994Y-46250D02*
X56674Y-46570D01*
X57674Y-40250D02*
X57994Y-40570D01*
X57994Y-40250D02*
X57674Y-40570D01*
X57674Y-46250D02*
X57994Y-46570D01*
X57994Y-46250D02*
X57674Y-46570D01*
X58674Y-40250D02*
X58994Y-40570D01*
X58994Y-40250D02*
X58674Y-40570D01*
X58674Y-46250D02*
X58994Y-46570D01*
X58994Y-46250D02*
X58674Y-46570D01*
X59674Y-40250D02*
X59994Y-40570D01*
X59994Y-40250D02*
X59674Y-40570D01*
X59674Y-46250D02*
X59994Y-46570D01*
X59994Y-46250D02*
X59674Y-46570D01*
X60674Y-40250D02*
X60994Y-40570D01*
X60994Y-40250D02*
X60674Y-40570D01*
X60674Y-46250D02*
X60994Y-46570D01*
X60994Y-46250D02*
X60674Y-46570D01*
X61674Y-40250D02*
X61994Y-40570D01*
X61994Y-40250D02*
X61674Y-40570D01*
X61674Y-46250D02*
X61994Y-46570D01*
X61994Y-46250D02*
X61674Y-46570D01*
X62674Y-40250D02*
X62994Y-40570D01*
X62994Y-40250D02*
X62674Y-40570D01*
X62674Y-46250D02*
X62994Y-46570D01*
X62994Y-46250D02*
X62674Y-46570D01*
X63674Y-40250D02*
X63994Y-40570D01*
X63994Y-40250D02*
X63674Y-40570D01*
X63674Y-46250D02*
X63994Y-46570D01*
X63994Y-46250D02*
X63674Y-46570D01*
X45034Y-38090D02*
G75*
G03X45034Y-38090I-200J0D01*
G74*
G01*
X46034Y-38090D02*
G75*
G03X46034Y-38090I-200J0D01*
G74*
G01*
X47034Y-38090D02*
G75*
G03X47034Y-38090I-200J0D01*
G74*
G01*
X48034Y-38090D02*
G75*
G03X48034Y-38090I-200J0D01*
G74*
G01*
X49034Y-38090D02*
G75*
G03X49034Y-38090I-200J0D01*
G74*
G01*
X50034Y-38090D02*
G75*
G03X50034Y-38090I-200J0D01*
G74*
G01*
X51034Y-38090D02*
G75*
G03X51034Y-38090I-200J0D01*
G74*
G01*
X52034Y-38090D02*
G75*
G03X52034Y-38090I-200J0D01*
G74*
G01*
X53034Y-38090D02*
G75*
G03X53034Y-38090I-200J0D01*
G74*
G01*
X54034Y-38090D02*
G75*
G03X54034Y-38090I-200J0D01*
G74*
G01*
X55034Y-38090D02*
G75*
G03X55034Y-38090I-200J0D01*
G74*
G01*
X56034Y-38090D02*
G75*
G03X56034Y-38090I-200J0D01*
G74*
G01*
X57034Y-38090D02*
G75*
G03X57034Y-38090I-200J0D01*
G74*
G01*
X58034Y-38090D02*
G75*
G03X58034Y-38090I-200J0D01*
G74*
G01*
X59034Y-38090D02*
G75*
G03X59034Y-38090I-200J0D01*
G74*
G01*
X60034Y-38090D02*
G75*
G03X60034Y-38090I-200J0D01*
G74*
G01*
X61034Y-38090D02*
G75*
G03X61034Y-38090I-200J0D01*
G74*
G01*
X62034Y-38090D02*
G75*
G03X62034Y-38090I-200J0D01*
G74*
G01*
X63034Y-38090D02*
G75*
G03X63034Y-38090I-200J0D01*
G74*
G01*
X64034Y-38090D02*
G75*
G03X64034Y-38090I-200J0D01*
G74*
G01*
G54D13*
X44521Y-48792D02*
X44521Y-47611D01*
X44803Y-47611D01*
X44971Y-47668D01*
X45084Y-47780D01*
X45140Y-47893D01*
X45196Y-48118D01*
X45196Y-48286D01*
X45140Y-48511D01*
X45084Y-48624D01*
X44971Y-48736D01*
X44803Y-48792D01*
X44521Y-48792D01*
X45703Y-48792D02*
X45703Y-48005D01*
X45703Y-48230D02*
X45759Y-48118D01*
X45815Y-48061D01*
X45928Y-48005D01*
X46040Y-48005D01*
X46434Y-48792D02*
X46434Y-48005D01*
X46434Y-47611D02*
X46377Y-47668D01*
X46434Y-47724D01*
X46490Y-47668D01*
X46434Y-47611D01*
X46434Y-47724D01*
X47165Y-48792D02*
X47052Y-48736D01*
X46996Y-48624D01*
X46996Y-47611D01*
X47784Y-48792D02*
X47671Y-48736D01*
X47615Y-48624D01*
X47615Y-47611D01*
X49133Y-48792D02*
X49133Y-47611D01*
X49527Y-48455D01*
X49921Y-47611D01*
X49921Y-48792D01*
X50989Y-48792D02*
X50989Y-48174D01*
X50933Y-48061D01*
X50821Y-48005D01*
X50596Y-48005D01*
X50483Y-48061D01*
X50989Y-48736D02*
X50877Y-48792D01*
X50596Y-48792D01*
X50483Y-48736D01*
X50427Y-48624D01*
X50427Y-48511D01*
X50483Y-48399D01*
X50596Y-48343D01*
X50877Y-48343D01*
X50989Y-48286D01*
X51552Y-48005D02*
X51552Y-49186D01*
X51552Y-48061D02*
X51664Y-48005D01*
X51889Y-48005D01*
X52002Y-48061D01*
X52058Y-48118D01*
X52114Y-48230D01*
X52114Y-48567D01*
X52058Y-48680D01*
X52002Y-48736D01*
X51889Y-48792D01*
X51664Y-48792D01*
X51552Y-48736D01*
X52620Y-48680D02*
X52677Y-48736D01*
X52620Y-48792D01*
X52564Y-48736D01*
X52620Y-48680D01*
X52620Y-48792D01*
X52620Y-48061D02*
X52677Y-48118D01*
X52620Y-48174D01*
X52564Y-48118D01*
X52620Y-48061D01*
X52620Y-48174D01*
X43133Y-50635D02*
X43453Y-50955D01*
X43453Y-50635D02*
X43133Y-50955D01*
X44746Y-50092D02*
X44859Y-50092D01*
X44971Y-50148D01*
X45028Y-50204D01*
X45084Y-50317D01*
X45140Y-50542D01*
X45140Y-50823D01*
X45084Y-51048D01*
X45028Y-51160D01*
X44971Y-51217D01*
X44859Y-51273D01*
X44746Y-51273D01*
X44634Y-51217D01*
X44578Y-51160D01*
X44521Y-51048D01*
X44465Y-50823D01*
X44465Y-50542D01*
X44521Y-50317D01*
X44578Y-50204D01*
X44634Y-50148D01*
X44746Y-50092D01*
X45646Y-51160D02*
X45703Y-51217D01*
X45646Y-51273D01*
X45590Y-51217D01*
X45646Y-51160D01*
X45646Y-51273D01*
X46377Y-50598D02*
X46265Y-50542D01*
X46209Y-50485D01*
X46152Y-50373D01*
X46152Y-50317D01*
X46209Y-50204D01*
X46265Y-50148D01*
X46377Y-50092D01*
X46602Y-50092D01*
X46715Y-50148D01*
X46771Y-50204D01*
X46827Y-50317D01*
X46827Y-50373D01*
X46771Y-50485D01*
X46715Y-50542D01*
X46602Y-50598D01*
X46377Y-50598D01*
X46265Y-50654D01*
X46209Y-50710D01*
X46152Y-50823D01*
X46152Y-51048D01*
X46209Y-51160D01*
X46265Y-51217D01*
X46377Y-51273D01*
X46602Y-51273D01*
X46715Y-51217D01*
X46771Y-51160D01*
X46827Y-51048D01*
X46827Y-50823D01*
X46771Y-50710D01*
X46715Y-50654D01*
X46602Y-50598D01*
X47952Y-51273D02*
X47277Y-51273D01*
X47615Y-51273D02*
X47615Y-50092D01*
X47502Y-50260D01*
X47390Y-50373D01*
X47277Y-50429D01*
X48458Y-51273D02*
X48458Y-50485D01*
X48458Y-50598D02*
X48515Y-50542D01*
X48627Y-50485D01*
X48796Y-50485D01*
X48908Y-50542D01*
X48965Y-50654D01*
X48965Y-51273D01*
X48965Y-50654D02*
X49021Y-50542D01*
X49133Y-50485D01*
X49302Y-50485D01*
X49415Y-50542D01*
X49471Y-50654D01*
X49471Y-51273D01*
X50033Y-51273D02*
X50033Y-50485D01*
X50033Y-50598D02*
X50089Y-50542D01*
X50202Y-50485D01*
X50371Y-50485D01*
X50483Y-50542D01*
X50539Y-50654D01*
X50539Y-51273D01*
X50539Y-50654D02*
X50596Y-50542D01*
X50708Y-50485D01*
X50877Y-50485D01*
X50989Y-50542D01*
X51046Y-50654D01*
X51046Y-51273D01*
X53352Y-50035D02*
X52339Y-51554D01*
X54870Y-50092D02*
X54983Y-50092D01*
X55095Y-50148D01*
X55151Y-50204D01*
X55208Y-50317D01*
X55264Y-50542D01*
X55264Y-50823D01*
X55208Y-51048D01*
X55151Y-51160D01*
X55095Y-51217D01*
X54983Y-51273D01*
X54870Y-51273D01*
X54758Y-51217D01*
X54701Y-51160D01*
X54645Y-51048D01*
X54589Y-50823D01*
X54589Y-50542D01*
X54645Y-50317D01*
X54701Y-50204D01*
X54758Y-50148D01*
X54870Y-50092D01*
X55770Y-51160D02*
X55826Y-51217D01*
X55770Y-51273D01*
X55714Y-51217D01*
X55770Y-51160D01*
X55770Y-51273D01*
X56557Y-50092D02*
X56670Y-50092D01*
X56782Y-50148D01*
X56839Y-50204D01*
X56895Y-50317D01*
X56951Y-50542D01*
X56951Y-50823D01*
X56895Y-51048D01*
X56839Y-51160D01*
X56782Y-51217D01*
X56670Y-51273D01*
X56557Y-51273D01*
X56445Y-51217D01*
X56389Y-51160D01*
X56332Y-51048D01*
X56276Y-50823D01*
X56276Y-50542D01*
X56332Y-50317D01*
X56389Y-50204D01*
X56445Y-50148D01*
X56557Y-50092D01*
X57345Y-50092D02*
X58076Y-50092D01*
X57682Y-50542D01*
X57851Y-50542D01*
X57964Y-50598D01*
X58020Y-50654D01*
X58076Y-50767D01*
X58076Y-51048D01*
X58020Y-51160D01*
X57964Y-51217D01*
X57851Y-51273D01*
X57514Y-51273D01*
X57401Y-51217D01*
X57345Y-51160D01*
X58526Y-50204D02*
X58582Y-50148D01*
X58695Y-50092D01*
X58976Y-50092D01*
X59088Y-50148D01*
X59145Y-50204D01*
X59201Y-50317D01*
X59201Y-50429D01*
X59145Y-50598D01*
X58470Y-51273D01*
X59201Y-51273D01*
X59651Y-50092D02*
X59651Y-50317D01*
X60101Y-50092D02*
X60101Y-50317D01*
X61844Y-51723D02*
X61788Y-51666D01*
X61676Y-51498D01*
X61619Y-51385D01*
X61563Y-51217D01*
X61507Y-50935D01*
X61507Y-50710D01*
X61563Y-50429D01*
X61619Y-50260D01*
X61676Y-50148D01*
X61788Y-49979D01*
X61844Y-49923D01*
X62800Y-50485D02*
X62800Y-51273D01*
X62519Y-50035D02*
X62238Y-50879D01*
X62969Y-50879D01*
X63644Y-50092D02*
X63757Y-50092D01*
X63869Y-50148D01*
X63925Y-50204D01*
X63981Y-50317D01*
X64038Y-50542D01*
X64038Y-50823D01*
X63981Y-51048D01*
X63925Y-51160D01*
X63869Y-51217D01*
X63757Y-51273D01*
X63644Y-51273D01*
X63532Y-51217D01*
X63475Y-51160D01*
X63419Y-51048D01*
X63363Y-50823D01*
X63363Y-50542D01*
X63419Y-50317D01*
X63475Y-50204D01*
X63532Y-50148D01*
X63644Y-50092D01*
X65444Y-51273D02*
X65444Y-50092D01*
X65950Y-51273D02*
X65950Y-50654D01*
X65894Y-50542D01*
X65781Y-50485D01*
X65613Y-50485D01*
X65500Y-50542D01*
X65444Y-50598D01*
X66681Y-51273D02*
X66569Y-51217D01*
X66512Y-51160D01*
X66456Y-51048D01*
X66456Y-50710D01*
X66512Y-50598D01*
X66569Y-50542D01*
X66681Y-50485D01*
X66850Y-50485D01*
X66962Y-50542D01*
X67019Y-50598D01*
X67075Y-50710D01*
X67075Y-51048D01*
X67019Y-51160D01*
X66962Y-51217D01*
X66850Y-51273D01*
X66681Y-51273D01*
X67750Y-51273D02*
X67637Y-51217D01*
X67581Y-51104D01*
X67581Y-50092D01*
X68650Y-51217D02*
X68537Y-51273D01*
X68312Y-51273D01*
X68200Y-51217D01*
X68143Y-51104D01*
X68143Y-50654D01*
X68200Y-50542D01*
X68312Y-50485D01*
X68537Y-50485D01*
X68650Y-50542D01*
X68706Y-50654D01*
X68706Y-50767D01*
X68143Y-50879D01*
X69156Y-51217D02*
X69268Y-51273D01*
X69493Y-51273D01*
X69606Y-51217D01*
X69662Y-51104D01*
X69662Y-51048D01*
X69606Y-50935D01*
X69493Y-50879D01*
X69325Y-50879D01*
X69212Y-50823D01*
X69156Y-50710D01*
X69156Y-50654D01*
X69212Y-50542D01*
X69325Y-50485D01*
X69493Y-50485D01*
X69606Y-50542D01*
X70056Y-51723D02*
X70112Y-51666D01*
X70224Y-51498D01*
X70281Y-51385D01*
X70337Y-51217D01*
X70393Y-50935D01*
X70393Y-50710D01*
X70337Y-50429D01*
X70281Y-50260D01*
X70224Y-50148D01*
X70112Y-49979D01*
X70056Y-49923D01*
G54D12*
X43453Y-52354D02*
G75*
G03X43453Y-52354I-200J0D01*
G74*
G01*
G54D13*
X45140Y-52832D02*
X44465Y-52832D01*
X44803Y-52832D02*
X44803Y-51651D01*
X44690Y-51819D01*
X44578Y-51932D01*
X44465Y-51988D01*
X45646Y-52719D02*
X45703Y-52776D01*
X45646Y-52832D01*
X45590Y-52776D01*
X45646Y-52719D01*
X45646Y-52832D01*
X46434Y-51651D02*
X46546Y-51651D01*
X46659Y-51707D01*
X46715Y-51763D01*
X46771Y-51876D01*
X46827Y-52101D01*
X46827Y-52382D01*
X46771Y-52607D01*
X46715Y-52719D01*
X46659Y-52776D01*
X46546Y-52832D01*
X46434Y-52832D01*
X46321Y-52776D01*
X46265Y-52719D01*
X46209Y-52607D01*
X46152Y-52382D01*
X46152Y-52101D01*
X46209Y-51876D01*
X46265Y-51763D01*
X46321Y-51707D01*
X46434Y-51651D01*
X47277Y-51763D02*
X47334Y-51707D01*
X47446Y-51651D01*
X47727Y-51651D01*
X47840Y-51707D01*
X47896Y-51763D01*
X47952Y-51876D01*
X47952Y-51988D01*
X47896Y-52157D01*
X47221Y-52832D01*
X47952Y-52832D01*
X48458Y-52832D02*
X48458Y-52044D01*
X48458Y-52157D02*
X48515Y-52101D01*
X48627Y-52044D01*
X48796Y-52044D01*
X48908Y-52101D01*
X48965Y-52213D01*
X48965Y-52832D01*
X48965Y-52213D02*
X49021Y-52101D01*
X49133Y-52044D01*
X49302Y-52044D01*
X49415Y-52101D01*
X49471Y-52213D01*
X49471Y-52832D01*
X50033Y-52832D02*
X50033Y-52044D01*
X50033Y-52157D02*
X50089Y-52101D01*
X50202Y-52044D01*
X50371Y-52044D01*
X50483Y-52101D01*
X50539Y-52213D01*
X50539Y-52832D01*
X50539Y-52213D02*
X50596Y-52101D01*
X50708Y-52044D01*
X50877Y-52044D01*
X50989Y-52101D01*
X51046Y-52213D01*
X51046Y-52832D01*
X53352Y-51594D02*
X52339Y-53113D01*
X54870Y-51651D02*
X54983Y-51651D01*
X55095Y-51707D01*
X55151Y-51763D01*
X55208Y-51876D01*
X55264Y-52101D01*
X55264Y-52382D01*
X55208Y-52607D01*
X55151Y-52719D01*
X55095Y-52776D01*
X54983Y-52832D01*
X54870Y-52832D01*
X54758Y-52776D01*
X54701Y-52719D01*
X54645Y-52607D01*
X54589Y-52382D01*
X54589Y-52101D01*
X54645Y-51876D01*
X54701Y-51763D01*
X54758Y-51707D01*
X54870Y-51651D01*
X55770Y-52719D02*
X55826Y-52776D01*
X55770Y-52832D01*
X55714Y-52776D01*
X55770Y-52719D01*
X55770Y-52832D01*
X56557Y-51651D02*
X56670Y-51651D01*
X56782Y-51707D01*
X56839Y-51763D01*
X56895Y-51876D01*
X56951Y-52101D01*
X56951Y-52382D01*
X56895Y-52607D01*
X56839Y-52719D01*
X56782Y-52776D01*
X56670Y-52832D01*
X56557Y-52832D01*
X56445Y-52776D01*
X56389Y-52719D01*
X56332Y-52607D01*
X56276Y-52382D01*
X56276Y-52101D01*
X56332Y-51876D01*
X56389Y-51763D01*
X56445Y-51707D01*
X56557Y-51651D01*
X57964Y-52044D02*
X57964Y-52832D01*
X57682Y-51594D02*
X57401Y-52438D01*
X58132Y-52438D01*
X58807Y-51651D02*
X58920Y-51651D01*
X59032Y-51707D01*
X59088Y-51763D01*
X59145Y-51876D01*
X59201Y-52101D01*
X59201Y-52382D01*
X59145Y-52607D01*
X59088Y-52719D01*
X59032Y-52776D01*
X58920Y-52832D01*
X58807Y-52832D01*
X58695Y-52776D01*
X58638Y-52719D01*
X58582Y-52607D01*
X58526Y-52382D01*
X58526Y-52101D01*
X58582Y-51876D01*
X58638Y-51763D01*
X58695Y-51707D01*
X58807Y-51651D01*
X59651Y-51651D02*
X59651Y-51876D01*
X60101Y-51651D02*
X60101Y-51876D01*
X61844Y-53282D02*
X61788Y-53226D01*
X61676Y-53057D01*
X61619Y-52944D01*
X61563Y-52776D01*
X61507Y-52494D01*
X61507Y-52269D01*
X61563Y-51988D01*
X61619Y-51819D01*
X61676Y-51707D01*
X61788Y-51538D01*
X61844Y-51482D01*
X62238Y-51763D02*
X62294Y-51707D01*
X62407Y-51651D01*
X62688Y-51651D01*
X62800Y-51707D01*
X62857Y-51763D01*
X62913Y-51876D01*
X62913Y-51988D01*
X62857Y-52157D01*
X62182Y-52832D01*
X62913Y-52832D01*
X63644Y-51651D02*
X63757Y-51651D01*
X63869Y-51707D01*
X63925Y-51763D01*
X63981Y-51876D01*
X64038Y-52101D01*
X64038Y-52382D01*
X63981Y-52607D01*
X63925Y-52719D01*
X63869Y-52776D01*
X63757Y-52832D01*
X63644Y-52832D01*
X63532Y-52776D01*
X63475Y-52719D01*
X63419Y-52607D01*
X63363Y-52382D01*
X63363Y-52101D01*
X63419Y-51876D01*
X63475Y-51763D01*
X63532Y-51707D01*
X63644Y-51651D01*
X65444Y-52832D02*
X65444Y-51651D01*
X65950Y-52832D02*
X65950Y-52213D01*
X65894Y-52101D01*
X65781Y-52044D01*
X65613Y-52044D01*
X65500Y-52101D01*
X65444Y-52157D01*
X66681Y-52832D02*
X66569Y-52776D01*
X66512Y-52719D01*
X66456Y-52607D01*
X66456Y-52269D01*
X66512Y-52157D01*
X66569Y-52101D01*
X66681Y-52044D01*
X66850Y-52044D01*
X66962Y-52101D01*
X67019Y-52157D01*
X67075Y-52269D01*
X67075Y-52607D01*
X67019Y-52719D01*
X66962Y-52776D01*
X66850Y-52832D01*
X66681Y-52832D01*
X67750Y-52832D02*
X67637Y-52776D01*
X67581Y-52663D01*
X67581Y-51651D01*
X68650Y-52776D02*
X68537Y-52832D01*
X68312Y-52832D01*
X68200Y-52776D01*
X68143Y-52663D01*
X68143Y-52213D01*
X68200Y-52101D01*
X68312Y-52044D01*
X68537Y-52044D01*
X68650Y-52101D01*
X68706Y-52213D01*
X68706Y-52326D01*
X68143Y-52438D01*
X69156Y-52776D02*
X69268Y-52832D01*
X69493Y-52832D01*
X69606Y-52776D01*
X69662Y-52663D01*
X69662Y-52607D01*
X69606Y-52494D01*
X69493Y-52438D01*
X69325Y-52438D01*
X69212Y-52382D01*
X69156Y-52269D01*
X69156Y-52213D01*
X69212Y-52101D01*
X69325Y-52044D01*
X69493Y-52044D01*
X69606Y-52101D01*
X70056Y-53282D02*
X70112Y-53226D01*
X70224Y-53057D01*
X70281Y-52944D01*
X70337Y-52776D01*
X70393Y-52494D01*
X70393Y-52269D01*
X70337Y-51988D01*
X70281Y-51819D01*
X70224Y-51707D01*
X70112Y-51538D01*
X70056Y-51482D01*
M02*
