G04 (created by PCBNEW (2013-07-07 BZR 4022)-stable) date 2/28/2015 2:35:59 PM*
%MOIN*%
G04 Gerber Fmt 3.4, Leading zero omitted, Abs format*
%FSLAX34Y34*%
G01*
G70*
G90*
G04 APERTURE LIST*
%ADD10C,0.00590551*%
%ADD11O,0.06X0.12*%
%ADD12R,0.055X0.055*%
%ADD13C,0.055*%
%ADD14C,0.01*%
G04 APERTURE END LIST*
G54D10*
G54D11*
X44834Y-38090D03*
X45834Y-38090D03*
X46834Y-38090D03*
X47834Y-38090D03*
X48834Y-38090D03*
X49834Y-38090D03*
X50834Y-38090D03*
X51834Y-38090D03*
X52834Y-38090D03*
X53834Y-38090D03*
X54834Y-38090D03*
X55834Y-38090D03*
X56834Y-38090D03*
X57834Y-38090D03*
X58834Y-38090D03*
X59834Y-38090D03*
X60834Y-38090D03*
X61834Y-38090D03*
X62834Y-38090D03*
X63834Y-38090D03*
G54D12*
X44834Y-46410D03*
G54D13*
X45834Y-46410D03*
X46834Y-46410D03*
X47834Y-46410D03*
X48834Y-46410D03*
X49834Y-46410D03*
X50834Y-46410D03*
X51834Y-46410D03*
X52834Y-46410D03*
X53834Y-46410D03*
X54834Y-46410D03*
X55834Y-46410D03*
X56834Y-46410D03*
X57834Y-46410D03*
X58834Y-46410D03*
X59834Y-46410D03*
X60834Y-46410D03*
X61834Y-46410D03*
X62834Y-46410D03*
X63834Y-46410D03*
X63834Y-40410D03*
X62834Y-40410D03*
X61834Y-40410D03*
X60834Y-40410D03*
X59834Y-40410D03*
X58834Y-40410D03*
X57834Y-40410D03*
X56834Y-40410D03*
X55834Y-40410D03*
X54834Y-40410D03*
X53834Y-40410D03*
X52834Y-40410D03*
X51834Y-40410D03*
X50834Y-40410D03*
X49834Y-40410D03*
X48834Y-40410D03*
X47834Y-40410D03*
X46834Y-40410D03*
X45834Y-40410D03*
X44834Y-40410D03*
G54D14*
X56834Y-38090D02*
X56834Y-38554D01*
X46834Y-38508D02*
X46834Y-38090D01*
X47490Y-39164D02*
X46834Y-38508D01*
X56224Y-39164D02*
X47490Y-39164D01*
X56834Y-38554D02*
X56224Y-39164D01*
X45834Y-38090D02*
X45834Y-38356D01*
X44124Y-45700D02*
X44834Y-46410D01*
X44124Y-40066D02*
X44124Y-45700D01*
X45834Y-38356D02*
X44124Y-40066D01*
G54D10*
G36*
X65044Y-46824D02*
X64384Y-46824D01*
X64384Y-38406D01*
X64384Y-37773D01*
X64342Y-37562D01*
X64222Y-37384D01*
X64044Y-37265D01*
X63834Y-37223D01*
X63623Y-37265D01*
X63445Y-37384D01*
X63334Y-37550D01*
X63222Y-37384D01*
X63044Y-37265D01*
X62834Y-37223D01*
X62623Y-37265D01*
X62445Y-37384D01*
X62334Y-37550D01*
X62222Y-37384D01*
X62044Y-37265D01*
X61834Y-37223D01*
X61623Y-37265D01*
X61445Y-37384D01*
X61334Y-37550D01*
X61222Y-37384D01*
X61044Y-37265D01*
X60834Y-37223D01*
X60623Y-37265D01*
X60445Y-37384D01*
X60334Y-37550D01*
X60222Y-37384D01*
X60044Y-37265D01*
X59834Y-37223D01*
X59623Y-37265D01*
X59445Y-37384D01*
X59334Y-37550D01*
X59222Y-37384D01*
X59044Y-37265D01*
X58834Y-37223D01*
X58623Y-37265D01*
X58445Y-37384D01*
X58334Y-37550D01*
X58222Y-37384D01*
X58044Y-37265D01*
X57834Y-37223D01*
X57623Y-37265D01*
X57445Y-37384D01*
X57334Y-37550D01*
X57222Y-37384D01*
X57044Y-37265D01*
X56834Y-37223D01*
X56623Y-37265D01*
X56445Y-37384D01*
X56334Y-37550D01*
X56222Y-37384D01*
X56044Y-37265D01*
X55834Y-37223D01*
X55623Y-37265D01*
X55445Y-37384D01*
X55334Y-37550D01*
X55222Y-37384D01*
X55044Y-37265D01*
X54834Y-37223D01*
X54623Y-37265D01*
X54445Y-37384D01*
X54334Y-37550D01*
X54222Y-37384D01*
X54044Y-37265D01*
X53834Y-37223D01*
X53623Y-37265D01*
X53445Y-37384D01*
X53334Y-37550D01*
X53222Y-37384D01*
X53044Y-37265D01*
X52834Y-37223D01*
X52623Y-37265D01*
X52445Y-37384D01*
X52334Y-37550D01*
X52222Y-37384D01*
X52044Y-37265D01*
X51834Y-37223D01*
X51623Y-37265D01*
X51445Y-37384D01*
X51334Y-37550D01*
X51222Y-37384D01*
X51044Y-37265D01*
X50834Y-37223D01*
X50623Y-37265D01*
X50445Y-37384D01*
X50334Y-37550D01*
X50222Y-37384D01*
X50044Y-37265D01*
X49834Y-37223D01*
X49623Y-37265D01*
X49445Y-37384D01*
X49334Y-37550D01*
X49222Y-37384D01*
X49044Y-37265D01*
X48834Y-37223D01*
X48623Y-37265D01*
X48445Y-37384D01*
X48334Y-37550D01*
X48222Y-37384D01*
X48044Y-37265D01*
X47834Y-37223D01*
X47623Y-37265D01*
X47445Y-37384D01*
X47334Y-37550D01*
X47222Y-37384D01*
X47044Y-37265D01*
X46834Y-37223D01*
X46623Y-37265D01*
X46445Y-37384D01*
X46329Y-37556D01*
X46322Y-37533D01*
X46187Y-37365D01*
X45998Y-37262D01*
X45969Y-37256D01*
X45884Y-37305D01*
X45884Y-38040D01*
X45891Y-38040D01*
X45891Y-38140D01*
X45884Y-38140D01*
X45884Y-38874D01*
X45969Y-38923D01*
X45998Y-38917D01*
X46187Y-38814D01*
X46322Y-38646D01*
X46329Y-38623D01*
X46445Y-38795D01*
X46623Y-38914D01*
X46834Y-38956D01*
X46854Y-38952D01*
X47277Y-39376D01*
X47277Y-39376D01*
X47375Y-39441D01*
X47490Y-39464D01*
X56224Y-39464D01*
X56224Y-39463D01*
X56338Y-39441D01*
X56338Y-39441D01*
X56436Y-39376D01*
X56860Y-38951D01*
X57044Y-38914D01*
X57222Y-38795D01*
X57334Y-38629D01*
X57445Y-38795D01*
X57623Y-38914D01*
X57834Y-38956D01*
X58044Y-38914D01*
X58222Y-38795D01*
X58334Y-38629D01*
X58445Y-38795D01*
X58623Y-38914D01*
X58834Y-38956D01*
X59044Y-38914D01*
X59222Y-38795D01*
X59334Y-38629D01*
X59445Y-38795D01*
X59623Y-38914D01*
X59834Y-38956D01*
X60044Y-38914D01*
X60222Y-38795D01*
X60334Y-38629D01*
X60445Y-38795D01*
X60623Y-38914D01*
X60834Y-38956D01*
X61044Y-38914D01*
X61222Y-38795D01*
X61334Y-38629D01*
X61445Y-38795D01*
X61623Y-38914D01*
X61834Y-38956D01*
X62044Y-38914D01*
X62222Y-38795D01*
X62334Y-38629D01*
X62445Y-38795D01*
X62623Y-38914D01*
X62834Y-38956D01*
X63044Y-38914D01*
X63222Y-38795D01*
X63334Y-38629D01*
X63445Y-38795D01*
X63623Y-38914D01*
X63834Y-38956D01*
X64044Y-38914D01*
X64222Y-38795D01*
X64342Y-38617D01*
X64384Y-38406D01*
X64384Y-46824D01*
X64162Y-46824D01*
X64278Y-46707D01*
X64358Y-46514D01*
X64359Y-46306D01*
X64359Y-40306D01*
X64279Y-40113D01*
X64131Y-39965D01*
X63938Y-39885D01*
X63730Y-39884D01*
X63537Y-39964D01*
X63389Y-40112D01*
X63333Y-40245D01*
X63279Y-40113D01*
X63131Y-39965D01*
X62938Y-39885D01*
X62730Y-39884D01*
X62537Y-39964D01*
X62389Y-40112D01*
X62333Y-40245D01*
X62279Y-40113D01*
X62131Y-39965D01*
X61938Y-39885D01*
X61730Y-39884D01*
X61537Y-39964D01*
X61389Y-40112D01*
X61333Y-40245D01*
X61279Y-40113D01*
X61131Y-39965D01*
X60938Y-39885D01*
X60730Y-39884D01*
X60537Y-39964D01*
X60389Y-40112D01*
X60333Y-40245D01*
X60279Y-40113D01*
X60131Y-39965D01*
X59938Y-39885D01*
X59730Y-39884D01*
X59537Y-39964D01*
X59389Y-40112D01*
X59333Y-40245D01*
X59279Y-40113D01*
X59131Y-39965D01*
X58938Y-39885D01*
X58730Y-39884D01*
X58537Y-39964D01*
X58389Y-40112D01*
X58333Y-40245D01*
X58279Y-40113D01*
X58131Y-39965D01*
X57938Y-39885D01*
X57730Y-39884D01*
X57537Y-39964D01*
X57389Y-40112D01*
X57333Y-40245D01*
X57279Y-40113D01*
X57131Y-39965D01*
X56938Y-39885D01*
X56730Y-39884D01*
X56537Y-39964D01*
X56389Y-40112D01*
X56333Y-40245D01*
X56279Y-40113D01*
X56131Y-39965D01*
X55938Y-39885D01*
X55730Y-39884D01*
X55537Y-39964D01*
X55389Y-40112D01*
X55333Y-40245D01*
X55279Y-40113D01*
X55131Y-39965D01*
X54938Y-39885D01*
X54730Y-39884D01*
X54537Y-39964D01*
X54389Y-40112D01*
X54333Y-40245D01*
X54279Y-40113D01*
X54131Y-39965D01*
X53938Y-39885D01*
X53730Y-39884D01*
X53537Y-39964D01*
X53389Y-40112D01*
X53333Y-40245D01*
X53279Y-40113D01*
X53131Y-39965D01*
X52938Y-39885D01*
X52730Y-39884D01*
X52537Y-39964D01*
X52389Y-40112D01*
X52333Y-40245D01*
X52279Y-40113D01*
X52131Y-39965D01*
X51938Y-39885D01*
X51730Y-39884D01*
X51537Y-39964D01*
X51389Y-40112D01*
X51333Y-40245D01*
X51279Y-40113D01*
X51131Y-39965D01*
X50938Y-39885D01*
X50730Y-39884D01*
X50537Y-39964D01*
X50389Y-40112D01*
X50333Y-40245D01*
X50279Y-40113D01*
X50131Y-39965D01*
X49938Y-39885D01*
X49730Y-39884D01*
X49537Y-39964D01*
X49389Y-40112D01*
X49333Y-40245D01*
X49279Y-40113D01*
X49131Y-39965D01*
X48938Y-39885D01*
X48730Y-39884D01*
X48537Y-39964D01*
X48389Y-40112D01*
X48333Y-40245D01*
X48279Y-40113D01*
X48131Y-39965D01*
X47938Y-39885D01*
X47730Y-39884D01*
X47537Y-39964D01*
X47389Y-40112D01*
X47333Y-40245D01*
X47279Y-40113D01*
X47131Y-39965D01*
X46938Y-39885D01*
X46730Y-39884D01*
X46537Y-39964D01*
X46389Y-40112D01*
X46333Y-40245D01*
X46279Y-40113D01*
X46131Y-39965D01*
X45938Y-39885D01*
X45784Y-39884D01*
X45784Y-38874D01*
X45784Y-38140D01*
X45776Y-38140D01*
X45776Y-38040D01*
X45784Y-38040D01*
X45784Y-37305D01*
X45698Y-37256D01*
X45669Y-37262D01*
X45480Y-37365D01*
X45345Y-37533D01*
X45338Y-37556D01*
X45222Y-37384D01*
X45044Y-37265D01*
X44834Y-37223D01*
X44623Y-37265D01*
X44445Y-37384D01*
X44325Y-37562D01*
X44284Y-37773D01*
X44284Y-38406D01*
X44325Y-38617D01*
X44445Y-38795D01*
X44623Y-38914D01*
X44834Y-38956D01*
X45044Y-38914D01*
X45222Y-38795D01*
X45338Y-38623D01*
X45345Y-38646D01*
X45480Y-38814D01*
X45669Y-38917D01*
X45698Y-38923D01*
X45784Y-38874D01*
X45784Y-39884D01*
X45730Y-39884D01*
X45537Y-39964D01*
X45389Y-40112D01*
X45333Y-40245D01*
X45279Y-40113D01*
X45131Y-39965D01*
X44938Y-39885D01*
X44730Y-39884D01*
X44537Y-39964D01*
X44389Y-40112D01*
X44309Y-40305D01*
X44308Y-40513D01*
X44388Y-40707D01*
X44536Y-40854D01*
X44729Y-40934D01*
X44937Y-40935D01*
X45131Y-40855D01*
X45278Y-40707D01*
X45334Y-40574D01*
X45388Y-40707D01*
X45536Y-40854D01*
X45729Y-40934D01*
X45937Y-40935D01*
X46131Y-40855D01*
X46278Y-40707D01*
X46334Y-40574D01*
X46388Y-40707D01*
X46536Y-40854D01*
X46729Y-40934D01*
X46937Y-40935D01*
X47131Y-40855D01*
X47278Y-40707D01*
X47334Y-40574D01*
X47388Y-40707D01*
X47536Y-40854D01*
X47729Y-40934D01*
X47937Y-40935D01*
X48131Y-40855D01*
X48278Y-40707D01*
X48334Y-40574D01*
X48388Y-40707D01*
X48536Y-40854D01*
X48729Y-40934D01*
X48937Y-40935D01*
X49131Y-40855D01*
X49278Y-40707D01*
X49334Y-40574D01*
X49388Y-40707D01*
X49536Y-40854D01*
X49729Y-40934D01*
X49937Y-40935D01*
X50131Y-40855D01*
X50278Y-40707D01*
X50334Y-40574D01*
X50388Y-40707D01*
X50536Y-40854D01*
X50729Y-40934D01*
X50937Y-40935D01*
X51131Y-40855D01*
X51278Y-40707D01*
X51334Y-40574D01*
X51388Y-40707D01*
X51536Y-40854D01*
X51729Y-40934D01*
X51937Y-40935D01*
X52131Y-40855D01*
X52278Y-40707D01*
X52334Y-40574D01*
X52388Y-40707D01*
X52536Y-40854D01*
X52729Y-40934D01*
X52937Y-40935D01*
X53131Y-40855D01*
X53278Y-40707D01*
X53334Y-40574D01*
X53388Y-40707D01*
X53536Y-40854D01*
X53729Y-40934D01*
X53937Y-40935D01*
X54131Y-40855D01*
X54278Y-40707D01*
X54334Y-40574D01*
X54388Y-40707D01*
X54536Y-40854D01*
X54729Y-40934D01*
X54937Y-40935D01*
X55131Y-40855D01*
X55278Y-40707D01*
X55334Y-40574D01*
X55388Y-40707D01*
X55536Y-40854D01*
X55729Y-40934D01*
X55937Y-40935D01*
X56131Y-40855D01*
X56278Y-40707D01*
X56334Y-40574D01*
X56388Y-40707D01*
X56536Y-40854D01*
X56729Y-40934D01*
X56937Y-40935D01*
X57131Y-40855D01*
X57278Y-40707D01*
X57334Y-40574D01*
X57388Y-40707D01*
X57536Y-40854D01*
X57729Y-40934D01*
X57937Y-40935D01*
X58131Y-40855D01*
X58278Y-40707D01*
X58334Y-40574D01*
X58388Y-40707D01*
X58536Y-40854D01*
X58729Y-40934D01*
X58937Y-40935D01*
X59131Y-40855D01*
X59278Y-40707D01*
X59334Y-40574D01*
X59388Y-40707D01*
X59536Y-40854D01*
X59729Y-40934D01*
X59937Y-40935D01*
X60131Y-40855D01*
X60278Y-40707D01*
X60334Y-40574D01*
X60388Y-40707D01*
X60536Y-40854D01*
X60729Y-40934D01*
X60937Y-40935D01*
X61131Y-40855D01*
X61278Y-40707D01*
X61334Y-40574D01*
X61388Y-40707D01*
X61536Y-40854D01*
X61729Y-40934D01*
X61937Y-40935D01*
X62131Y-40855D01*
X62278Y-40707D01*
X62334Y-40574D01*
X62388Y-40707D01*
X62536Y-40854D01*
X62729Y-40934D01*
X62937Y-40935D01*
X63131Y-40855D01*
X63278Y-40707D01*
X63334Y-40574D01*
X63388Y-40707D01*
X63536Y-40854D01*
X63729Y-40934D01*
X63937Y-40935D01*
X64131Y-40855D01*
X64278Y-40707D01*
X64358Y-40514D01*
X64359Y-40306D01*
X64359Y-46306D01*
X64279Y-46113D01*
X64131Y-45965D01*
X63938Y-45885D01*
X63730Y-45884D01*
X63537Y-45964D01*
X63389Y-46112D01*
X63333Y-46245D01*
X63279Y-46113D01*
X63131Y-45965D01*
X62938Y-45885D01*
X62730Y-45884D01*
X62537Y-45964D01*
X62389Y-46112D01*
X62333Y-46245D01*
X62279Y-46113D01*
X62131Y-45965D01*
X61938Y-45885D01*
X61730Y-45884D01*
X61537Y-45964D01*
X61389Y-46112D01*
X61333Y-46245D01*
X61279Y-46113D01*
X61131Y-45965D01*
X60938Y-45885D01*
X60730Y-45884D01*
X60537Y-45964D01*
X60389Y-46112D01*
X60333Y-46245D01*
X60279Y-46113D01*
X60131Y-45965D01*
X59938Y-45885D01*
X59730Y-45884D01*
X59537Y-45964D01*
X59389Y-46112D01*
X59333Y-46245D01*
X59279Y-46113D01*
X59131Y-45965D01*
X58938Y-45885D01*
X58730Y-45884D01*
X58537Y-45964D01*
X58389Y-46112D01*
X58333Y-46245D01*
X58279Y-46113D01*
X58131Y-45965D01*
X57938Y-45885D01*
X57730Y-45884D01*
X57537Y-45964D01*
X57389Y-46112D01*
X57333Y-46245D01*
X57279Y-46113D01*
X57131Y-45965D01*
X56938Y-45885D01*
X56730Y-45884D01*
X56537Y-45964D01*
X56389Y-46112D01*
X56333Y-46245D01*
X56279Y-46113D01*
X56131Y-45965D01*
X55938Y-45885D01*
X55730Y-45884D01*
X55537Y-45964D01*
X55389Y-46112D01*
X55333Y-46245D01*
X55279Y-46113D01*
X55131Y-45965D01*
X54938Y-45885D01*
X54730Y-45884D01*
X54537Y-45964D01*
X54389Y-46112D01*
X54333Y-46245D01*
X54279Y-46113D01*
X54131Y-45965D01*
X53938Y-45885D01*
X53730Y-45884D01*
X53537Y-45964D01*
X53389Y-46112D01*
X53333Y-46245D01*
X53279Y-46113D01*
X53131Y-45965D01*
X52938Y-45885D01*
X52730Y-45884D01*
X52537Y-45964D01*
X52389Y-46112D01*
X52333Y-46245D01*
X52279Y-46113D01*
X52131Y-45965D01*
X51938Y-45885D01*
X51730Y-45884D01*
X51537Y-45964D01*
X51389Y-46112D01*
X51333Y-46245D01*
X51279Y-46113D01*
X51131Y-45965D01*
X50938Y-45885D01*
X50730Y-45884D01*
X50537Y-45964D01*
X50389Y-46112D01*
X50333Y-46245D01*
X50279Y-46113D01*
X50131Y-45965D01*
X49938Y-45885D01*
X49730Y-45884D01*
X49537Y-45964D01*
X49389Y-46112D01*
X49333Y-46245D01*
X49279Y-46113D01*
X49131Y-45965D01*
X48938Y-45885D01*
X48730Y-45884D01*
X48537Y-45964D01*
X48389Y-46112D01*
X48333Y-46245D01*
X48279Y-46113D01*
X48131Y-45965D01*
X47938Y-45885D01*
X47730Y-45884D01*
X47537Y-45964D01*
X47389Y-46112D01*
X47333Y-46245D01*
X47279Y-46113D01*
X47131Y-45965D01*
X46938Y-45885D01*
X46730Y-45884D01*
X46537Y-45964D01*
X46389Y-46112D01*
X46333Y-46245D01*
X46279Y-46113D01*
X46131Y-45965D01*
X45938Y-45885D01*
X45730Y-45884D01*
X45537Y-45964D01*
X45389Y-46112D01*
X45359Y-46184D01*
X45359Y-46184D01*
X45358Y-46085D01*
X45320Y-45993D01*
X45250Y-45922D01*
X45158Y-45884D01*
X44946Y-45885D01*
X44884Y-45947D01*
X44884Y-46360D01*
X44891Y-46360D01*
X44891Y-46460D01*
X44884Y-46460D01*
X44884Y-46467D01*
X44784Y-46467D01*
X44784Y-46460D01*
X44784Y-46360D01*
X44784Y-45947D01*
X44721Y-45885D01*
X44509Y-45884D01*
X44417Y-45922D01*
X44347Y-45993D01*
X44309Y-46085D01*
X44308Y-46184D01*
X44309Y-46297D01*
X44371Y-46360D01*
X44784Y-46360D01*
X44784Y-46460D01*
X44371Y-46460D01*
X44309Y-46522D01*
X44308Y-46635D01*
X44309Y-46734D01*
X44340Y-46810D01*
X43669Y-46810D01*
X43589Y-36719D01*
X64979Y-36719D01*
X65044Y-46824D01*
X65044Y-46824D01*
G37*
G54D14*
X65044Y-46824D02*
X64384Y-46824D01*
X64384Y-38406D01*
X64384Y-37773D01*
X64342Y-37562D01*
X64222Y-37384D01*
X64044Y-37265D01*
X63834Y-37223D01*
X63623Y-37265D01*
X63445Y-37384D01*
X63334Y-37550D01*
X63222Y-37384D01*
X63044Y-37265D01*
X62834Y-37223D01*
X62623Y-37265D01*
X62445Y-37384D01*
X62334Y-37550D01*
X62222Y-37384D01*
X62044Y-37265D01*
X61834Y-37223D01*
X61623Y-37265D01*
X61445Y-37384D01*
X61334Y-37550D01*
X61222Y-37384D01*
X61044Y-37265D01*
X60834Y-37223D01*
X60623Y-37265D01*
X60445Y-37384D01*
X60334Y-37550D01*
X60222Y-37384D01*
X60044Y-37265D01*
X59834Y-37223D01*
X59623Y-37265D01*
X59445Y-37384D01*
X59334Y-37550D01*
X59222Y-37384D01*
X59044Y-37265D01*
X58834Y-37223D01*
X58623Y-37265D01*
X58445Y-37384D01*
X58334Y-37550D01*
X58222Y-37384D01*
X58044Y-37265D01*
X57834Y-37223D01*
X57623Y-37265D01*
X57445Y-37384D01*
X57334Y-37550D01*
X57222Y-37384D01*
X57044Y-37265D01*
X56834Y-37223D01*
X56623Y-37265D01*
X56445Y-37384D01*
X56334Y-37550D01*
X56222Y-37384D01*
X56044Y-37265D01*
X55834Y-37223D01*
X55623Y-37265D01*
X55445Y-37384D01*
X55334Y-37550D01*
X55222Y-37384D01*
X55044Y-37265D01*
X54834Y-37223D01*
X54623Y-37265D01*
X54445Y-37384D01*
X54334Y-37550D01*
X54222Y-37384D01*
X54044Y-37265D01*
X53834Y-37223D01*
X53623Y-37265D01*
X53445Y-37384D01*
X53334Y-37550D01*
X53222Y-37384D01*
X53044Y-37265D01*
X52834Y-37223D01*
X52623Y-37265D01*
X52445Y-37384D01*
X52334Y-37550D01*
X52222Y-37384D01*
X52044Y-37265D01*
X51834Y-37223D01*
X51623Y-37265D01*
X51445Y-37384D01*
X51334Y-37550D01*
X51222Y-37384D01*
X51044Y-37265D01*
X50834Y-37223D01*
X50623Y-37265D01*
X50445Y-37384D01*
X50334Y-37550D01*
X50222Y-37384D01*
X50044Y-37265D01*
X49834Y-37223D01*
X49623Y-37265D01*
X49445Y-37384D01*
X49334Y-37550D01*
X49222Y-37384D01*
X49044Y-37265D01*
X48834Y-37223D01*
X48623Y-37265D01*
X48445Y-37384D01*
X48334Y-37550D01*
X48222Y-37384D01*
X48044Y-37265D01*
X47834Y-37223D01*
X47623Y-37265D01*
X47445Y-37384D01*
X47334Y-37550D01*
X47222Y-37384D01*
X47044Y-37265D01*
X46834Y-37223D01*
X46623Y-37265D01*
X46445Y-37384D01*
X46329Y-37556D01*
X46322Y-37533D01*
X46187Y-37365D01*
X45998Y-37262D01*
X45969Y-37256D01*
X45884Y-37305D01*
X45884Y-38040D01*
X45891Y-38040D01*
X45891Y-38140D01*
X45884Y-38140D01*
X45884Y-38874D01*
X45969Y-38923D01*
X45998Y-38917D01*
X46187Y-38814D01*
X46322Y-38646D01*
X46329Y-38623D01*
X46445Y-38795D01*
X46623Y-38914D01*
X46834Y-38956D01*
X46854Y-38952D01*
X47277Y-39376D01*
X47277Y-39376D01*
X47375Y-39441D01*
X47490Y-39464D01*
X56224Y-39464D01*
X56224Y-39463D01*
X56338Y-39441D01*
X56338Y-39441D01*
X56436Y-39376D01*
X56860Y-38951D01*
X57044Y-38914D01*
X57222Y-38795D01*
X57334Y-38629D01*
X57445Y-38795D01*
X57623Y-38914D01*
X57834Y-38956D01*
X58044Y-38914D01*
X58222Y-38795D01*
X58334Y-38629D01*
X58445Y-38795D01*
X58623Y-38914D01*
X58834Y-38956D01*
X59044Y-38914D01*
X59222Y-38795D01*
X59334Y-38629D01*
X59445Y-38795D01*
X59623Y-38914D01*
X59834Y-38956D01*
X60044Y-38914D01*
X60222Y-38795D01*
X60334Y-38629D01*
X60445Y-38795D01*
X60623Y-38914D01*
X60834Y-38956D01*
X61044Y-38914D01*
X61222Y-38795D01*
X61334Y-38629D01*
X61445Y-38795D01*
X61623Y-38914D01*
X61834Y-38956D01*
X62044Y-38914D01*
X62222Y-38795D01*
X62334Y-38629D01*
X62445Y-38795D01*
X62623Y-38914D01*
X62834Y-38956D01*
X63044Y-38914D01*
X63222Y-38795D01*
X63334Y-38629D01*
X63445Y-38795D01*
X63623Y-38914D01*
X63834Y-38956D01*
X64044Y-38914D01*
X64222Y-38795D01*
X64342Y-38617D01*
X64384Y-38406D01*
X64384Y-46824D01*
X64162Y-46824D01*
X64278Y-46707D01*
X64358Y-46514D01*
X64359Y-46306D01*
X64359Y-40306D01*
X64279Y-40113D01*
X64131Y-39965D01*
X63938Y-39885D01*
X63730Y-39884D01*
X63537Y-39964D01*
X63389Y-40112D01*
X63333Y-40245D01*
X63279Y-40113D01*
X63131Y-39965D01*
X62938Y-39885D01*
X62730Y-39884D01*
X62537Y-39964D01*
X62389Y-40112D01*
X62333Y-40245D01*
X62279Y-40113D01*
X62131Y-39965D01*
X61938Y-39885D01*
X61730Y-39884D01*
X61537Y-39964D01*
X61389Y-40112D01*
X61333Y-40245D01*
X61279Y-40113D01*
X61131Y-39965D01*
X60938Y-39885D01*
X60730Y-39884D01*
X60537Y-39964D01*
X60389Y-40112D01*
X60333Y-40245D01*
X60279Y-40113D01*
X60131Y-39965D01*
X59938Y-39885D01*
X59730Y-39884D01*
X59537Y-39964D01*
X59389Y-40112D01*
X59333Y-40245D01*
X59279Y-40113D01*
X59131Y-39965D01*
X58938Y-39885D01*
X58730Y-39884D01*
X58537Y-39964D01*
X58389Y-40112D01*
X58333Y-40245D01*
X58279Y-40113D01*
X58131Y-39965D01*
X57938Y-39885D01*
X57730Y-39884D01*
X57537Y-39964D01*
X57389Y-40112D01*
X57333Y-40245D01*
X57279Y-40113D01*
X57131Y-39965D01*
X56938Y-39885D01*
X56730Y-39884D01*
X56537Y-39964D01*
X56389Y-40112D01*
X56333Y-40245D01*
X56279Y-40113D01*
X56131Y-39965D01*
X55938Y-39885D01*
X55730Y-39884D01*
X55537Y-39964D01*
X55389Y-40112D01*
X55333Y-40245D01*
X55279Y-40113D01*
X55131Y-39965D01*
X54938Y-39885D01*
X54730Y-39884D01*
X54537Y-39964D01*
X54389Y-40112D01*
X54333Y-40245D01*
X54279Y-40113D01*
X54131Y-39965D01*
X53938Y-39885D01*
X53730Y-39884D01*
X53537Y-39964D01*
X53389Y-40112D01*
X53333Y-40245D01*
X53279Y-40113D01*
X53131Y-39965D01*
X52938Y-39885D01*
X52730Y-39884D01*
X52537Y-39964D01*
X52389Y-40112D01*
X52333Y-40245D01*
X52279Y-40113D01*
X52131Y-39965D01*
X51938Y-39885D01*
X51730Y-39884D01*
X51537Y-39964D01*
X51389Y-40112D01*
X51333Y-40245D01*
X51279Y-40113D01*
X51131Y-39965D01*
X50938Y-39885D01*
X50730Y-39884D01*
X50537Y-39964D01*
X50389Y-40112D01*
X50333Y-40245D01*
X50279Y-40113D01*
X50131Y-39965D01*
X49938Y-39885D01*
X49730Y-39884D01*
X49537Y-39964D01*
X49389Y-40112D01*
X49333Y-40245D01*
X49279Y-40113D01*
X49131Y-39965D01*
X48938Y-39885D01*
X48730Y-39884D01*
X48537Y-39964D01*
X48389Y-40112D01*
X48333Y-40245D01*
X48279Y-40113D01*
X48131Y-39965D01*
X47938Y-39885D01*
X47730Y-39884D01*
X47537Y-39964D01*
X47389Y-40112D01*
X47333Y-40245D01*
X47279Y-40113D01*
X47131Y-39965D01*
X46938Y-39885D01*
X46730Y-39884D01*
X46537Y-39964D01*
X46389Y-40112D01*
X46333Y-40245D01*
X46279Y-40113D01*
X46131Y-39965D01*
X45938Y-39885D01*
X45784Y-39884D01*
X45784Y-38874D01*
X45784Y-38140D01*
X45776Y-38140D01*
X45776Y-38040D01*
X45784Y-38040D01*
X45784Y-37305D01*
X45698Y-37256D01*
X45669Y-37262D01*
X45480Y-37365D01*
X45345Y-37533D01*
X45338Y-37556D01*
X45222Y-37384D01*
X45044Y-37265D01*
X44834Y-37223D01*
X44623Y-37265D01*
X44445Y-37384D01*
X44325Y-37562D01*
X44284Y-37773D01*
X44284Y-38406D01*
X44325Y-38617D01*
X44445Y-38795D01*
X44623Y-38914D01*
X44834Y-38956D01*
X45044Y-38914D01*
X45222Y-38795D01*
X45338Y-38623D01*
X45345Y-38646D01*
X45480Y-38814D01*
X45669Y-38917D01*
X45698Y-38923D01*
X45784Y-38874D01*
X45784Y-39884D01*
X45730Y-39884D01*
X45537Y-39964D01*
X45389Y-40112D01*
X45333Y-40245D01*
X45279Y-40113D01*
X45131Y-39965D01*
X44938Y-39885D01*
X44730Y-39884D01*
X44537Y-39964D01*
X44389Y-40112D01*
X44309Y-40305D01*
X44308Y-40513D01*
X44388Y-40707D01*
X44536Y-40854D01*
X44729Y-40934D01*
X44937Y-40935D01*
X45131Y-40855D01*
X45278Y-40707D01*
X45334Y-40574D01*
X45388Y-40707D01*
X45536Y-40854D01*
X45729Y-40934D01*
X45937Y-40935D01*
X46131Y-40855D01*
X46278Y-40707D01*
X46334Y-40574D01*
X46388Y-40707D01*
X46536Y-40854D01*
X46729Y-40934D01*
X46937Y-40935D01*
X47131Y-40855D01*
X47278Y-40707D01*
X47334Y-40574D01*
X47388Y-40707D01*
X47536Y-40854D01*
X47729Y-40934D01*
X47937Y-40935D01*
X48131Y-40855D01*
X48278Y-40707D01*
X48334Y-40574D01*
X48388Y-40707D01*
X48536Y-40854D01*
X48729Y-40934D01*
X48937Y-40935D01*
X49131Y-40855D01*
X49278Y-40707D01*
X49334Y-40574D01*
X49388Y-40707D01*
X49536Y-40854D01*
X49729Y-40934D01*
X49937Y-40935D01*
X50131Y-40855D01*
X50278Y-40707D01*
X50334Y-40574D01*
X50388Y-40707D01*
X50536Y-40854D01*
X50729Y-40934D01*
X50937Y-40935D01*
X51131Y-40855D01*
X51278Y-40707D01*
X51334Y-40574D01*
X51388Y-40707D01*
X51536Y-40854D01*
X51729Y-40934D01*
X51937Y-40935D01*
X52131Y-40855D01*
X52278Y-40707D01*
X52334Y-40574D01*
X52388Y-40707D01*
X52536Y-40854D01*
X52729Y-40934D01*
X52937Y-40935D01*
X53131Y-40855D01*
X53278Y-40707D01*
X53334Y-40574D01*
X53388Y-40707D01*
X53536Y-40854D01*
X53729Y-40934D01*
X53937Y-40935D01*
X54131Y-40855D01*
X54278Y-40707D01*
X54334Y-40574D01*
X54388Y-40707D01*
X54536Y-40854D01*
X54729Y-40934D01*
X54937Y-40935D01*
X55131Y-40855D01*
X55278Y-40707D01*
X55334Y-40574D01*
X55388Y-40707D01*
X55536Y-40854D01*
X55729Y-40934D01*
X55937Y-40935D01*
X56131Y-40855D01*
X56278Y-40707D01*
X56334Y-40574D01*
X56388Y-40707D01*
X56536Y-40854D01*
X56729Y-40934D01*
X56937Y-40935D01*
X57131Y-40855D01*
X57278Y-40707D01*
X57334Y-40574D01*
X57388Y-40707D01*
X57536Y-40854D01*
X57729Y-40934D01*
X57937Y-40935D01*
X58131Y-40855D01*
X58278Y-40707D01*
X58334Y-40574D01*
X58388Y-40707D01*
X58536Y-40854D01*
X58729Y-40934D01*
X58937Y-40935D01*
X59131Y-40855D01*
X59278Y-40707D01*
X59334Y-40574D01*
X59388Y-40707D01*
X59536Y-40854D01*
X59729Y-40934D01*
X59937Y-40935D01*
X60131Y-40855D01*
X60278Y-40707D01*
X60334Y-40574D01*
X60388Y-40707D01*
X60536Y-40854D01*
X60729Y-40934D01*
X60937Y-40935D01*
X61131Y-40855D01*
X61278Y-40707D01*
X61334Y-40574D01*
X61388Y-40707D01*
X61536Y-40854D01*
X61729Y-40934D01*
X61937Y-40935D01*
X62131Y-40855D01*
X62278Y-40707D01*
X62334Y-40574D01*
X62388Y-40707D01*
X62536Y-40854D01*
X62729Y-40934D01*
X62937Y-40935D01*
X63131Y-40855D01*
X63278Y-40707D01*
X63334Y-40574D01*
X63388Y-40707D01*
X63536Y-40854D01*
X63729Y-40934D01*
X63937Y-40935D01*
X64131Y-40855D01*
X64278Y-40707D01*
X64358Y-40514D01*
X64359Y-40306D01*
X64359Y-46306D01*
X64279Y-46113D01*
X64131Y-45965D01*
X63938Y-45885D01*
X63730Y-45884D01*
X63537Y-45964D01*
X63389Y-46112D01*
X63333Y-46245D01*
X63279Y-46113D01*
X63131Y-45965D01*
X62938Y-45885D01*
X62730Y-45884D01*
X62537Y-45964D01*
X62389Y-46112D01*
X62333Y-46245D01*
X62279Y-46113D01*
X62131Y-45965D01*
X61938Y-45885D01*
X61730Y-45884D01*
X61537Y-45964D01*
X61389Y-46112D01*
X61333Y-46245D01*
X61279Y-46113D01*
X61131Y-45965D01*
X60938Y-45885D01*
X60730Y-45884D01*
X60537Y-45964D01*
X60389Y-46112D01*
X60333Y-46245D01*
X60279Y-46113D01*
X60131Y-45965D01*
X59938Y-45885D01*
X59730Y-45884D01*
X59537Y-45964D01*
X59389Y-46112D01*
X59333Y-46245D01*
X59279Y-46113D01*
X59131Y-45965D01*
X58938Y-45885D01*
X58730Y-45884D01*
X58537Y-45964D01*
X58389Y-46112D01*
X58333Y-46245D01*
X58279Y-46113D01*
X58131Y-45965D01*
X57938Y-45885D01*
X57730Y-45884D01*
X57537Y-45964D01*
X57389Y-46112D01*
X57333Y-46245D01*
X57279Y-46113D01*
X57131Y-45965D01*
X56938Y-45885D01*
X56730Y-45884D01*
X56537Y-45964D01*
X56389Y-46112D01*
X56333Y-46245D01*
X56279Y-46113D01*
X56131Y-45965D01*
X55938Y-45885D01*
X55730Y-45884D01*
X55537Y-45964D01*
X55389Y-46112D01*
X55333Y-46245D01*
X55279Y-46113D01*
X55131Y-45965D01*
X54938Y-45885D01*
X54730Y-45884D01*
X54537Y-45964D01*
X54389Y-46112D01*
X54333Y-46245D01*
X54279Y-46113D01*
X54131Y-45965D01*
X53938Y-45885D01*
X53730Y-45884D01*
X53537Y-45964D01*
X53389Y-46112D01*
X53333Y-46245D01*
X53279Y-46113D01*
X53131Y-45965D01*
X52938Y-45885D01*
X52730Y-45884D01*
X52537Y-45964D01*
X52389Y-46112D01*
X52333Y-46245D01*
X52279Y-46113D01*
X52131Y-45965D01*
X51938Y-45885D01*
X51730Y-45884D01*
X51537Y-45964D01*
X51389Y-46112D01*
X51333Y-46245D01*
X51279Y-46113D01*
X51131Y-45965D01*
X50938Y-45885D01*
X50730Y-45884D01*
X50537Y-45964D01*
X50389Y-46112D01*
X50333Y-46245D01*
X50279Y-46113D01*
X50131Y-45965D01*
X49938Y-45885D01*
X49730Y-45884D01*
X49537Y-45964D01*
X49389Y-46112D01*
X49333Y-46245D01*
X49279Y-46113D01*
X49131Y-45965D01*
X48938Y-45885D01*
X48730Y-45884D01*
X48537Y-45964D01*
X48389Y-46112D01*
X48333Y-46245D01*
X48279Y-46113D01*
X48131Y-45965D01*
X47938Y-45885D01*
X47730Y-45884D01*
X47537Y-45964D01*
X47389Y-46112D01*
X47333Y-46245D01*
X47279Y-46113D01*
X47131Y-45965D01*
X46938Y-45885D01*
X46730Y-45884D01*
X46537Y-45964D01*
X46389Y-46112D01*
X46333Y-46245D01*
X46279Y-46113D01*
X46131Y-45965D01*
X45938Y-45885D01*
X45730Y-45884D01*
X45537Y-45964D01*
X45389Y-46112D01*
X45359Y-46184D01*
X45359Y-46184D01*
X45358Y-46085D01*
X45320Y-45993D01*
X45250Y-45922D01*
X45158Y-45884D01*
X44946Y-45885D01*
X44884Y-45947D01*
X44884Y-46360D01*
X44891Y-46360D01*
X44891Y-46460D01*
X44884Y-46460D01*
X44884Y-46467D01*
X44784Y-46467D01*
X44784Y-46460D01*
X44784Y-46360D01*
X44784Y-45947D01*
X44721Y-45885D01*
X44509Y-45884D01*
X44417Y-45922D01*
X44347Y-45993D01*
X44309Y-46085D01*
X44308Y-46184D01*
X44309Y-46297D01*
X44371Y-46360D01*
X44784Y-46360D01*
X44784Y-46460D01*
X44371Y-46460D01*
X44309Y-46522D01*
X44308Y-46635D01*
X44309Y-46734D01*
X44340Y-46810D01*
X43669Y-46810D01*
X43589Y-36719D01*
X64979Y-36719D01*
X65044Y-46824D01*
M02*
