G04 (created by PCBNEW (2013-07-07 BZR 4022)-stable) date 2/28/2015 2:35:59 PM*
%MOIN*%
G04 Gerber Fmt 3.4, Leading zero omitted, Abs format*
%FSLAX34Y34*%
G01*
G70*
G90*
G04 APERTURE LIST*
%ADD10C,0.00590551*%
%ADD11C,0.0035*%
G04 APERTURE END LIST*
G54D10*
G54D11*
X45184Y-37322D02*
X45184Y-36822D01*
X45375Y-36822D01*
X45423Y-36846D01*
X45446Y-36870D01*
X45470Y-36917D01*
X45470Y-36989D01*
X45446Y-37036D01*
X45423Y-37060D01*
X45375Y-37084D01*
X45184Y-37084D01*
X45661Y-36870D02*
X45684Y-36846D01*
X45732Y-36822D01*
X45851Y-36822D01*
X45899Y-36846D01*
X45923Y-36870D01*
X45946Y-36917D01*
X45946Y-36965D01*
X45923Y-37036D01*
X45637Y-37322D01*
X45946Y-37322D01*
X44536Y-39244D02*
X44512Y-39268D01*
X44441Y-39292D01*
X44393Y-39292D01*
X44322Y-39268D01*
X44274Y-39220D01*
X44250Y-39173D01*
X44226Y-39078D01*
X44226Y-39006D01*
X44250Y-38911D01*
X44274Y-38863D01*
X44322Y-38816D01*
X44393Y-38792D01*
X44441Y-38792D01*
X44512Y-38816D01*
X44536Y-38840D01*
X44845Y-38792D02*
X44941Y-38792D01*
X44988Y-38816D01*
X45036Y-38863D01*
X45060Y-38959D01*
X45060Y-39125D01*
X45036Y-39220D01*
X44988Y-39268D01*
X44941Y-39292D01*
X44845Y-39292D01*
X44798Y-39268D01*
X44750Y-39220D01*
X44726Y-39125D01*
X44726Y-38959D01*
X44750Y-38863D01*
X44798Y-38816D01*
X44845Y-38792D01*
X45274Y-39292D02*
X45274Y-38792D01*
X45560Y-39292D01*
X45560Y-38792D01*
X45798Y-39292D02*
X45798Y-38792D01*
X46084Y-39292D01*
X46084Y-38792D01*
X46203Y-39340D02*
X46584Y-39340D01*
X46679Y-38840D02*
X46703Y-38816D01*
X46750Y-38792D01*
X46869Y-38792D01*
X46917Y-38816D01*
X46941Y-38840D01*
X46964Y-38887D01*
X46964Y-38935D01*
X46941Y-39006D01*
X46655Y-39292D01*
X46964Y-39292D01*
X47274Y-38792D02*
X47322Y-38792D01*
X47369Y-38816D01*
X47393Y-38840D01*
X47417Y-38887D01*
X47441Y-38982D01*
X47441Y-39101D01*
X47417Y-39197D01*
X47393Y-39244D01*
X47369Y-39268D01*
X47322Y-39292D01*
X47274Y-39292D01*
X47226Y-39268D01*
X47203Y-39244D01*
X47179Y-39197D01*
X47155Y-39101D01*
X47155Y-38982D01*
X47179Y-38887D01*
X47203Y-38840D01*
X47226Y-38816D01*
X47274Y-38792D01*
M02*
