G04 (created by PCBNEW (2013-07-07 BZR 4022)-stable) date 2/28/2015 2:35:59 PM*
%MOIN*%
G04 Gerber Fmt 3.4, Leading zero omitted, Abs format*
%FSLAX34Y34*%
G01*
G70*
G90*
G04 APERTURE LIST*
%ADD10C,0.00590551*%
%ADD11R,0.055X0.055*%
%ADD12C,0.055*%
G04 APERTURE END LIST*
G54D10*
G54D11*
X44834Y-46410D03*
G54D12*
X45834Y-46410D03*
X46834Y-46410D03*
X47834Y-46410D03*
X48834Y-46410D03*
X49834Y-46410D03*
X50834Y-46410D03*
X51834Y-46410D03*
X52834Y-46410D03*
X53834Y-46410D03*
X54834Y-46410D03*
X55834Y-46410D03*
X56834Y-46410D03*
X57834Y-46410D03*
X58834Y-46410D03*
X59834Y-46410D03*
X60834Y-46410D03*
X61834Y-46410D03*
X62834Y-46410D03*
X63834Y-46410D03*
X63834Y-40410D03*
X62834Y-40410D03*
X61834Y-40410D03*
X60834Y-40410D03*
X59834Y-40410D03*
X58834Y-40410D03*
X57834Y-40410D03*
X56834Y-40410D03*
X55834Y-40410D03*
X54834Y-40410D03*
X53834Y-40410D03*
X52834Y-40410D03*
X51834Y-40410D03*
X50834Y-40410D03*
X49834Y-40410D03*
X48834Y-40410D03*
X47834Y-40410D03*
X46834Y-40410D03*
X45834Y-40410D03*
X44834Y-40410D03*
M02*
