M48
;DRILL file {Pcbnew (2013-07-07 BZR 4022)-stable} date 2/28/2015 2:35:54 PM
;FORMAT={-:-/ absolute / inch / decimal}
FMAT,2
INCH,TZ
T1C0.032
T2C0.040
%
G90
G05
M72
T1
X4.4834Y-4.041
X4.4834Y-4.641
X4.5834Y-4.041
X4.5834Y-4.641
X4.6834Y-4.041
X4.6834Y-4.641
X4.7834Y-4.041
X4.7834Y-4.641
X4.8834Y-4.041
X4.8834Y-4.641
X4.9834Y-4.041
X4.9834Y-4.641
X5.0834Y-4.041
X5.0834Y-4.641
X5.1834Y-4.041
X5.1834Y-4.641
X5.2834Y-4.041
X5.2834Y-4.641
X5.3834Y-4.041
X5.3834Y-4.641
X5.4834Y-4.041
X5.4834Y-4.641
X5.5834Y-4.041
X5.5834Y-4.641
X5.6834Y-4.041
X5.6834Y-4.641
X5.7834Y-4.041
X5.7834Y-4.641
X5.8834Y-4.041
X5.8834Y-4.641
X5.9834Y-4.041
X5.9834Y-4.641
X6.0834Y-4.041
X6.0834Y-4.641
X6.1834Y-4.041
X6.1834Y-4.641
X6.2834Y-4.041
X6.2834Y-4.641
X6.3834Y-4.041
X6.3834Y-4.641
T2
X4.4834Y-3.809
X4.5834Y-3.809
X4.6834Y-3.809
X4.7834Y-3.809
X4.8834Y-3.809
X4.9834Y-3.809
X5.0834Y-3.809
X5.1834Y-3.809
X5.2834Y-3.809
X5.3834Y-3.809
X5.4834Y-3.809
X5.5834Y-3.809
X5.6834Y-3.809
X5.7834Y-3.809
X5.8834Y-3.809
X5.9834Y-3.809
X6.0834Y-3.809
X6.1834Y-3.809
X6.2834Y-3.809
X6.3834Y-3.809
T0
M30
